# xmcd
#
# Track frame offsets: 
#        150
#        21537
#        43028
#        62400
#        79768
#        99373
#        109647
#        126142
#        144762
#        157895
#        175671
#        197668
#        214043
#        233461
#        246527
#        266050
#        282183
#
# Disc length: 4035 seconds
#
# Revision: 0
# Processed by: cddbd v1.5.2PL0 Copyright (c) Steve Scherf et al.
# Submitted via: ExactAudioCopyFreeDBPlugin 1.0
#
DISCID=e10fc111
DTITLE=Afrob - Beats, Rhymes and Mr. Scardanelli
DYEAR=2017
DGENRE=No, thanks.
TTITLE0=Ruf deine Freunde an
TTITLE1=R.I.P.
TTITLE2=Ich mag an dir
TTITLE3=Der Afroasiate
TTITLE4=Hey du (nimm dir Zeit) [Jay Dilla Remix]
TTITLE5=Skit
TTITLE6=Reimemonster
TTITLE7=Einfach machen
TTITLE8=Interlude
TTITLE9=Spektakulär
TTITLE10=Wer bin ich?
TTITLE11=Get up
TTITLE12=Zeit
TTITLE13=808 Walza
TTITLE14=Warum bist du so
TTITLE15=Zähl mein Geld
TTITLE16=Einfach
EXTD=
EXTT0=
EXTT1=
EXTT2=
EXTT3=
EXTT4=
EXTT5=
EXTT6=
EXTT7=
EXTT8=
EXTT9=
EXTT10=
EXTT11=
EXTT12=
EXTT13=
EXTT14=
EXTT15=
EXTT16=
PLAYORDER=
